<svg xmlns="http://www.w3.org/2000/svg" width="1456" height="302" viewBox="0 0 1456 302">
  <defs>
    <style>
      .cls-1, .cls-2 {
        fill: #25096d;
      }

      .cls-1 {
        stroke: #25096d;
        stroke-width: 1px;
      }

      .cls-2 {
        fill-rule: evenodd;
      }
    </style>
  </defs>
  <circle class="cls-1" cx="150" cy="151" r="150"/>
  <path id="Glossover" class="cls-2" d="M406.817,175.076h33.6q0,10.6-6.1,16.9t-17.9,6.3q-26.4,0-26.4-32.4v-29.6q0-18.2,7.2-25.7t18.4-7.5q11.8,0,18.3,6.5t6.5,19.1v2.4h26.4v-2.4a57.552,57.552,0,0,0-3.4-19.9,45.554,45.554,0,0,0-26-27,55.43,55.43,0,0,0-21.4-3.9,58.514,58.514,0,0,0-21.2,3.7,44.926,44.926,0,0,0-16.5,10.9,50.717,50.717,0,0,0-10.8,17.7,68.966,68.966,0,0,0-3.9,24.1v32.8a75.562,75.562,0,0,0,3.6,24.5,52.035,52.035,0,0,0,9.8,17.6,40.2,40.2,0,0,0,14.6,10.7,45.207,45.207,0,0,0,18,3.6q13.6,0,20.4-5.3a26.063,26.063,0,0,0,9.2-13.1h3.6v15.6h24v-70.8h-60v25.2Zm85.4,45.6h92.4v-24h-32.4v-116h-58.8v24h33.6v92h-34.8v24Zm220.2-50.8a53.185,53.185,0,0,0-4.2-21.7,47.735,47.735,0,0,0-11.4-16.1,49.175,49.175,0,0,0-16.5-10,57.619,57.619,0,0,0-39,0,49.155,49.155,0,0,0-16.5,10,47.724,47.724,0,0,0-11.4,16.1,53.2,53.2,0,0,0-4.2,21.7v2.4a53.7,53.7,0,0,0,4.2,21.9,46.609,46.609,0,0,0,11.4,16,49.907,49.907,0,0,0,16.5,9.9,57.619,57.619,0,0,0,39,0,49.927,49.927,0,0,0,16.5-9.9,46.619,46.619,0,0,0,11.4-16,53.685,53.685,0,0,0,4.2-21.9v-2.4Zm-61.8,27.8a24.226,24.226,0,0,1-14.1-13.5,27.9,27.9,0,0,1-2.1-11.1v-4a27.928,27.928,0,0,1,2.1-11.1,24.226,24.226,0,0,1,14.1-13.5,29.8,29.8,0,0,1,20.4,0,24.226,24.226,0,0,1,14.1,13.5,27.928,27.928,0,0,1,2.1,11.1v4a27.9,27.9,0,0,1-2.1,11.1,24.226,24.226,0,0,1-14.1,13.5A29.8,29.8,0,0,1,650.616,197.676Zm121.8-53.9q3.2-2.3,9.6-2.3,7,0,11.4,3.1a16.465,16.465,0,0,1,6.2,8.5l22.8-9.2a44.292,44.292,0,0,0-4.6-8.7,34.759,34.759,0,0,0-7.8-8.2,39.491,39.491,0,0,0-11.7-6,51.766,51.766,0,0,0-16.3-2.3,49.43,49.43,0,0,0-14,2,37.365,37.365,0,0,0-12,5.9,30.932,30.932,0,0,0-8.4,9.5,25.737,25.737,0,0,0-3.2,13v1.2q0,14.2,9.9,21.5t26.7,8.7a75.448,75.448,0,0,1,10.3,1.6,22.519,22.519,0,0,1,6.5,2.5,8.972,8.972,0,0,1,3.3,3.2,7.8,7.8,0,0,1,.9,3.7q0,3.4-3.5,6.3t-12.9,2.9q-10.6,0-15.7-4.8a22.716,22.716,0,0,1-6.7-11.2l-23.2,7.6a38.54,38.54,0,0,0,3.9,10.7,33.181,33.181,0,0,0,8.3,10,45.411,45.411,0,0,0,13.6,7.5q8.2,3,19.8,3,19.6,0,30.4-8.8t10.8-23.6v-1.2q0-13.4-9.6-20.9t-24.8-9.1q-13.2-1.4-18.2-3.5t-5-6.9A6.822,6.822,0,0,1,772.417,143.776Zm122.4,0q3.2-2.3,9.6-2.3,7,0,11.4,3.1a16.458,16.458,0,0,1,6.2,8.5l22.8-9.2a44.292,44.292,0,0,0-4.6-8.7,34.744,34.744,0,0,0-7.8-8.2,39.473,39.473,0,0,0-11.7-6,51.768,51.768,0,0,0-16.3-2.3,49.44,49.44,0,0,0-14,2,37.386,37.386,0,0,0-12,5.9,30.958,30.958,0,0,0-8.4,9.5,25.747,25.747,0,0,0-3.2,13v1.2q0,14.2,9.9,21.5t26.7,8.7a75.44,75.44,0,0,1,10.3,1.6,22.519,22.519,0,0,1,6.5,2.5,8.968,8.968,0,0,1,3.3,3.2,7.786,7.786,0,0,1,.9,3.7q0,3.4-3.5,6.3t-12.9,2.9q-10.6,0-15.7-4.8a22.708,22.708,0,0,1-6.7-11.2l-23.2,7.6a38.54,38.54,0,0,0,3.9,10.7,33.166,33.166,0,0,0,8.3,10,45.411,45.411,0,0,0,13.6,7.5q8.2,3,19.8,3,19.6,0,30.4-8.8t10.8-23.6v-1.2q0-13.4-9.6-20.9t-24.8-9.1q-13.2-1.4-18.2-3.5t-5-6.9A6.822,6.822,0,0,1,894.817,143.776Zm184.8,26.1a53.185,53.185,0,0,0-4.2-21.7,47.708,47.708,0,0,0-11.4-16.1,49.175,49.175,0,0,0-16.5-10,57.619,57.619,0,0,0-39,0,49.188,49.188,0,0,0-16.5,10,47.71,47.71,0,0,0-11.4,16.1,53.2,53.2,0,0,0-4.2,21.7v2.4a53.7,53.7,0,0,0,4.2,21.9,46.6,46.6,0,0,0,11.4,16,49.941,49.941,0,0,0,16.5,9.9,57.619,57.619,0,0,0,39,0,49.927,49.927,0,0,0,16.5-9.9,46.593,46.593,0,0,0,11.4-16,53.684,53.684,0,0,0,4.2-21.9v-2.4Zm-61.8,27.8a24.224,24.224,0,0,1-14.1-13.5,27.917,27.917,0,0,1-2.1-11.1v-4a27.945,27.945,0,0,1,2.1-11.1,24.224,24.224,0,0,1,14.1-13.5,29.8,29.8,0,0,1,20.4,0,24.224,24.224,0,0,1,14.1,13.5,27.945,27.945,0,0,1,2.1,11.1v4a27.917,27.917,0,0,1-2.1,11.1,24.224,24.224,0,0,1-14.1,13.5A29.8,29.8,0,0,1,1017.82,197.676Zm108.4,23h48l28.4-99.2h-27.2l-23.4,87.2h-3.6l-23.4-87.2h-27.2Zm196-41.4v-13.4a50.437,50.437,0,0,0-2.8-16.1,44.945,44.945,0,0,0-8.8-15.2,47.482,47.482,0,0,0-15.2-11.4q-9.21-4.5-22-4.5a51.255,51.255,0,0,0-19.5,3.7,49.129,49.129,0,0,0-15.9,10.3,47.1,47.1,0,0,0-10.7,16,53.781,53.781,0,0,0-3.9,20.8v1.2a62.421,62.421,0,0,0,3.7,22.2,46.714,46.714,0,0,0,10.4,16.6,44.963,44.963,0,0,0,15.9,10.4,55.522,55.522,0,0,0,20.4,3.6,59.555,59.555,0,0,0,17.1-2.2,46.38,46.38,0,0,0,12.4-5.6,35.115,35.115,0,0,0,8.3-7.5,42.792,42.792,0,0,0,5-7.9l-21.6-12a19.763,19.763,0,0,1-7.2,7.9q-5.01,3.3-14.4,3.3a27.4,27.4,0,0,1-9.1-1.5,24.723,24.723,0,0,1-7.6-4.2,19.9,19.9,0,0,1-5.2-6.4,19.333,19.333,0,0,1-2.1-8.1h72.8Zm-33.1-33.2a17.776,17.776,0,0,1,7.5,11.6h-46.8a22.4,22.4,0,0,1,7.8-11.3q6-4.9,15.6-4.9T1289.12,146.076Zm55.7-.6h18v51.2h-20.4v24h68.4v-24h-22.8v-32q0-10.8,4.8-16.6t13.2-5.8q8.4,0,12.6,4.9t4.2,13.1v2.8l26-2.4v-4.4q0-19-9-28.3t-23.8-9.3a28.175,28.175,0,0,0-16.1,4.5,24.17,24.17,0,0,0-9.5,12.7h-3.6v-14.4h-42v24Z"/>
</svg>
